<?xml version="1.0" encoding="utf-8"?>
<!-- Generator: Adobe Illustrator 18.0.0, SVG Export Plug-In . SVG Version: 6.00 Build 0)  -->
<!DOCTYPE svg PUBLIC "-//W3C//DTD SVG 1.1//EN" "http://www.w3.org/Graphics/SVG/1.1/DTD/svg11.dtd">
<svg version="1.1" id="Layer_1" xmlns="http://www.w3.org/2000/svg" xmlns:xlink="http://www.w3.org/1999/xlink" x="0px" y="0px"
	 viewBox="0 0 1280 800" enable-background="new 0 0 1280 800" xml:space="preserve">
<path fill="#FFFFFF" d="M775.2-17.9l1.6,524h-80.1c-9.6-13-19.4-25.8-29.1-38.6c-5.6-7.4-10.8-14.9-16-22.5
	c-1.4-2.1-2.8-4.1-4.2-6.1c1.4-23,2-46,2.4-69c0-2.1,0.1-4.1,0.1-6.2c24.5-5.4,49.9-7.7,74.6-7.6c17.2,0.1,34.4,1.3,51.5,3.3v-63.1
	c-14.2-6.1-28.4-12-42.7-17.9c-22.3-9.1-44.6-18.1-67.3-26.3c-3.7-1.4-7.5-2.7-11.3-4c3.6-52.2,9.3-104.3,18.7-155.9
	C679.3,61.2,686.4,30.3,695,0h-17.6c-8.2,34.6-14.8,69.5-19.7,104.7c-6.5,46.4-10.5,93-13,139.7c-15.2-5.2-30.5-10.3-45.8-15.5
	c-27.8-9.5-55.6-19.5-82.4-31.7c-13.4-6.1-26.4-12.8-39.1-20.1c-4.8-2.8-9.6-5.6-14.5-8.4v52c34.2,44.7,68.4,89.3,102,134.5
	c-6.4,4.2-12.6,8.9-18.4,13.9c-29.6,25.3-52.4,61-58,99.9c-1.7,11.8-1.9,23.8-1,35.7c0.4,0.4,0.7,0.9,0.8,1.4h-25.7l0.2-524h-485
	v842h1314v-842H775.2z M655.1,285.6c17.9,6.2,35.8,12.5,53.4,19.5c8.9,3.5,17.8,7.1,26.7,10.7c-27.3-1.1-54.7,0.4-81.6,5.5
	C654,309.4,654.5,297.5,655.1,285.6z M527,269.1c-12.7-16.7-25.4-33.4-38.1-50.1c6.5,3.7,13.1,7.4,19.8,10.7
	c21.2,10.7,43.3,19.6,65.6,27.8c23.6,8.7,47.4,16.6,71.2,24.8c-0.4,13.6-0.7,27.2-1,40.9c-21.1,4.7-41.6,12-60.5,22.2
	C565.1,319.7,546.1,294.3,527,269.1z M643.3,365.8c-0.2,5.9-0.4,11.8-0.6,17.7c-0.6,13.6-1.5,27.3-2.7,40.8c-9-13-18-26-27.1-38.9
	c-1.8-2.6-3.7-5.1-5.5-7.6C618.9,372.9,630.9,368.9,643.3,365.8z M498.1,506.1C498.1,506.1,498.1,506.1,498.1,506.1l-1.6,0
	c0.4-2.6,0.9-5.2,1.4-8c3.9-19.1,12.7-37.3,23.5-53.4c17.2-25.7,40.2-44.8,66.2-58.6c9.6,13.2,19.2,26.4,28.7,39.7
	c6.2,8.7,12.3,17.4,18.3,26.1c0,0.1,0,0.1,0,0.2c-2,14.7-4,28.6-11.5,41.5c-2.5,4.3-5.4,8.5-8.6,12.5H498.1z M639.9,506.1
	c2.2-12.9,4-25.8,5.3-38.8c4.1,6,8.3,12,12.3,18c4.8,7.1,9.7,14,14.8,20.8H639.9z"/>
</svg>
