<svg xmlns="http://www.w3.org/2000/svg" xmlns:xlink="http://www.w3.org/1999/xlink" version="1.1" id="Layer_1" x="0px" y="0px" width="100px" height="100px" viewBox="0 0 100 100" enable-background="new 0 0 100 100" xml:space="preserve">
<g>
	<path d="M94.716,45.251C94.716,20.299,74.415,0,49.463,0C24.512,0,4.213,20.299,4.213,45.251l0,18.996   c0,9.24,7.519,16.759,16.759,16.759c3.851,0,6.984,3.133,6.984,6.984v9.496c0,1.389,1.125,2.514,2.513,2.514h37.989   c1.389,0,2.514-1.125,2.514-2.514V87.99c0-3.852,3.133-6.984,6.984-6.984c9.241,0,16.76-7.519,16.76-16.761L94.716,45.251z    M77.957,75.979c-6.623,0-12.012,5.391-12.012,12.012v6.982h-4.47V87.99c0-1.388-1.125-2.513-2.514-2.513s-2.514,1.125-2.514,2.513   v6.982h-4.471V87.99c0-1.388-1.125-2.513-2.513-2.513c-1.388,0-2.513,1.125-2.513,2.513v6.982H42.48V87.99   c0-1.388-1.125-2.513-2.513-2.513c-1.388,0-2.513,1.125-2.513,2.513v6.982h-4.472V87.99c0-6.621-5.388-12.012-12.01-12.012   c-6.47,0-11.733-5.262-11.733-11.731L9.238,45.251c0-22.181,18.045-40.226,40.225-40.226c22.182,0,40.226,18.045,40.226,40.226   l0.002,18.994C89.69,70.715,84.427,75.979,77.957,75.979z"/>
	<path d="M51.848,62.034c-0.342-1.026-1.302-1.719-2.383-1.719s-2.042,0.692-2.384,1.719L42.332,76.28   c-0.255,0.767-0.127,1.609,0.345,2.265c0.473,0.654,1.231,1.044,2.039,1.044h9.497c0.808,0,1.566-0.39,2.039-1.044   c0.472-0.655,0.6-1.498,0.345-2.265L51.848,62.034z"/>
	<path d="M29.052,43.234c-6.623,0-12.011,5.389-12.011,12.013c0,6.622,5.388,12.01,12.011,12.01c6.623,0,12.01-5.388,12.01-12.01   C41.063,48.623,35.675,43.234,29.052,43.234z"/>
	<path d="M69.876,43.234c-6.622,0-12.011,5.389-12.011,12.013c0,6.622,5.389,12.01,12.011,12.01c6.623,0,12.012-5.388,12.012-12.01   C81.888,48.623,76.499,43.234,69.876,43.234z"/>
</g>
</svg>