<?xml version="1.0" encoding="utf-8"?>
<!-- Generator: Adobe Illustrator 17.1.0, SVG Export Plug-In . SVG Version: 6.00 Build 0)  -->
<!DOCTYPE svg PUBLIC "-//W3C//DTD SVG 1.1//EN" "http://www.w3.org/Graphics/SVG/1.1/DTD/svg11.dtd">
<svg version="1.1" id="Layer_1" xmlns="http://www.w3.org/2000/svg" xmlns:xlink="http://www.w3.org/1999/xlink" x="0px" y="0px"
	 viewBox="0 0 200 200" enable-background="new 0 0 200 200" xml:space="preserve">
<g>
	<path fill="#A09E9E" d="M38.026-98.15c-0.835-0.059-1.605-0.114-1.605-0.171v-0.012c-12.785-1.049-23.424-1.405-35.205-1.331
		c-8.447-0.058-19.132,0.102-25.525,0.58v0.175c-3.196,0.222-9.117,0.479-13.125,0.76c-13.249,0.929-14.853,10.673-14.728,21.871
		l-0.082,150.05c-0.339,11.197,0.917,22.899,15.059,24.097c4.005,0.34,9.679,0.644,12.875,0.904v0.228
		c6.393,0.532,16.974,0.72,25.26,0.664c11.673,0.088,22.685-0.321,35.47-1.478V98.06c0-0.065,0.722-0.123,1.529-0.191
		c14.142-1.199,14.355-12.901,14.016-24.097l0.313-150.05C52.405-87.477,51.275-97.22,38.026-98.15z"/>
	<path fill="#717373" d="M-10.126,88.146h0.357h0.082h1.233H7.551h1.233h0.082h0.357c0,0,0.414,0.333,0.428,0.331
		c0.355,0.048,1.201,0.602,1.201,1.411c0,1.315,0,2.63,0,2.63s-0.76,2.176-3.733,2.509c-0.022,0.02-0.151-0.489-0.151-0.489
		c-0.068,0-0.144,0-0.227,0c-0.107,0-0.237,0-0.359,0c-3.29,0-11.424,0-13.665,0c-0.15,0-0.263,0-0.359,0c-0.142,0-0.227,0-0.227,0
		s-0.015,0.509-0.035,0.489c-2.975-0.333-3.618-2.509-3.618-2.509s0-1.315,0-2.63c0-0.836,0.724-1.377,1.189-1.414
		C-10.263,88.478-10.126,88.146-10.126,88.146z"/>
	<rect x="-44.565" y="-81.258" fill="#FFFFFF" width="88.506" height="154.713"/>
	<rect x="-44.565" y="-81.258" fill="#A5C13C" width="88.506" height="19.35"/>
	<rect x="-39.93" y="6.117" fill="#727474" width="21.364" height="8.341"/>
	<rect x="1.711" y="43.484" fill="#727474" width="27.485" height="2.7"/>
	<rect x="1.711" y="67.925" fill="#727474" width="27.485" height="2.7"/>
	<g>
		<rect x="-40.516" y="-76.566" fill="#FFFFFF" width="13.807" height="1.883"/>
		<rect x="-40.516" y="-72.288" fill="#FFFFFF" width="13.807" height="1.883"/>
		<rect x="-40.516" y="-68.01" fill="#FFFFFF" width="13.807" height="1.883"/>
	</g>
	<rect x="-10.892" y="-74.683" fill="#87A93E" width="45.289" height="7.615"/>
	<g>
		<rect x="-39.93" y="-42.212" fill="#545453" width="78.836" height="44.85"/>
		<g>
			<path fill="#343533" d="M-24.988,0.242h-12.35c-0.288,0-0.524-0.236-0.524-0.524v-6.984c0-0.288,0.236-0.524,0.524-0.524h12.35
				c0.288,0,0.524,0.236,0.524,0.524v6.984C-24.464,0.006-24.699,0.242-24.988,0.242z"/>
			<path fill="#343533" d="M20.205-1.204h-42.488c-0.257,0-0.467-0.21-0.467-0.467v-4.207c0-0.257,0.21-0.467,0.467-0.467h42.488
				c0.257,0,0.467,0.21,0.467,0.467v4.207C20.672-1.414,20.462-1.204,20.205-1.204z"/>
			<path fill="#343533" d="M35.818-1.204h-5.01c-0.257,0-0.467-0.21-0.467-0.467v-4.207c0-0.257,0.21-0.467,0.467-0.467h5.01
				c0.257,0,0.467,0.21,0.467,0.467v4.207C36.285-1.414,36.075-1.204,35.818-1.204z"/>
			<path fill="#343533" d="M28.548-1.204h-5.01c-0.257,0-0.467-0.21-0.467-0.467v-4.207c0-0.257,0.21-0.467,0.467-0.467h5.01
				c0.257,0,0.467,0.21,0.467,0.467v4.207C29.014-1.414,28.804-1.204,28.548-1.204z"/>
			<path fill="#A09E9E" d="M27.454-2.325H24.63c-0.145,0-0.263-0.118-0.263-0.263v-2.371c0-0.145,0.118-0.263,0.263-0.263h2.824
				c0.145,0,0.263,0.118,0.263,0.263v2.371C27.717-2.444,27.599-2.325,27.454-2.325z"/>
			<g id="QUrM8k.tif_27_">
				<g>
					<path fill="#A09E9E" d="M33.311-4.878c0.086,0.029,0.112,0.066,0.112,0.16c0,0.788,0,1.072,0,1.86
						c0,0.017-0.001,0.033-0.003,0.05c-0.007,0.069-0.037,0.121-0.109,0.139c-0.004,0-0.008,0-0.013,0
						c-0.059-0.011-0.943-0.611-0.968-0.61c-0.118,0.001-0.236-0.002-0.354,0.001c-0.078,0.002-0.134-0.023-0.161-0.1
						c0-0.264,0-0.528,0-0.792c0.027-0.077,0.083-0.102,0.161-0.1c0.119,0.003,0.239,0,0.358,0.001c0.023,0,0.892-0.596,0.964-0.61
						C33.303-4.878,33.307-4.878,33.311-4.878z"/>
					<path fill="#A09E9E" d="M34.781-3.679c-0.008,0.054-0.016,0.107-0.026,0.161c-0.051,0.27-0.174,0.502-0.365,0.698
						c-0.101,0.104-0.216,0.188-0.344,0.255c-0.067,0.035-0.136,0.02-0.171-0.036c-0.042-0.067-0.02-0.141,0.056-0.181
						c0.102-0.055,0.196-0.121,0.277-0.204c0.18-0.183,0.291-0.401,0.317-0.657c0.043-0.43-0.113-0.776-0.458-1.036
						c-0.044-0.033-0.094-0.059-0.142-0.087c-0.066-0.039-0.089-0.107-0.055-0.171c0.026-0.05,0.089-0.08,0.141-0.057
						c0.062,0.028,0.122,0.06,0.178,0.099c0.314,0.22,0.507,0.519,0.573,0.898c0.008,0.043,0.013,0.087,0.02,0.13
						C34.781-3.804,34.781-3.741,34.781-3.679z"/>
					<path fill="#A09E9E" d="M34.286-3.742c-0.014,0.347-0.178,0.637-0.506,0.832c-0.046,0.027-0.093,0.031-0.139,0.001
						c-0.045-0.03-0.061-0.073-0.053-0.125c0.008-0.046,0.04-0.073,0.079-0.096c0.171-0.101,0.285-0.246,0.341-0.436
						c0.095-0.325-0.044-0.675-0.338-0.847c-0.042-0.025-0.077-0.053-0.085-0.105c-0.014-0.085,0.073-0.163,0.154-0.134
						c0.092,0.034,0.167,0.095,0.237,0.162C34.18-4.295,34.281-4.055,34.286-3.742z"/>
				</g>
			</g>
			<path fill="#A09E9E" d="M-29.704-4.034c0.247,0.143,0.247,0.378,0,0.521l-2.63,1.529c-0.246,0.143-0.448,0.027-0.448-0.258
				v-3.063c0-0.285,0.202-0.401,0.448-0.258L-29.704-4.034z"/>
			<rect x="-15.895" y="-4.326" fill="#A09E9E" width="30.224" height="1.105"/>
		</g>
	</g>
	<rect x="-39.418" y="39.944" fill="#545453" width="38.11" height="21.681"/>
	<rect x="-39.418" y="65.16" fill="#545453" width="38.11" height="8.264"/>
	<circle fill="#A5C13C" cx="32.657" cy="29.378" r="6.647"/>
	<circle fill="#A5C13C" cx="16.378" cy="29.378" r="6.647"/>
	
		<line fill="none" stroke="#CBC9C9" stroke-width="0.25" stroke-miterlimit="10" x1="-41.619" y1="37.738" x2="41.112" y2="37.738"/>
</g>
</svg>
